<?xml version="1.0" encoding="UTF-8" standalone="no"?>
<!DOCTYPE svg PUBLIC "-//W3C//DTD SVG 20010904//EN"
              "http://www.w3.org/TR/2001/REC-SVG-20010904/DTD/svg10.dtd">

<svg xmlns="http://www.w3.org/2000/svg"
     width="132.275mm" height="132.275mm"
     viewBox="0 0 500 500">
  <path id="Sélection"
        fill="none" stroke="black" stroke-width="1"
        d="M 211.00,193.00
           C 211.00,193.00 225.00,191.28 225.00,191.28
             225.00,191.28 246.00,190.00 246.00,190.00
             246.00,190.00 282.00,190.00 282.00,190.00
             282.00,190.00 291.00,190.83 291.00,190.83
             298.79,191.58 304.81,190.88 311.00,197.00
             298.46,192.66 293.28,192.02 280.00,192.00
             280.00,192.00 265.00,191.00 265.00,191.00
             265.00,191.00 247.00,192.00 247.00,192.00
             240.49,192.01 220.40,192.47 215.00,194.00
             215.00,194.00 217.00,194.00 217.00,194.00
             217.00,194.00 217.00,195.00 217.00,195.00
             207.04,196.40 192.67,201.25 183.00,204.69
             178.51,206.29 170.42,210.31 166.00,210.00
             175.77,204.46 188.15,200.09 199.00,197.15
             202.04,196.33 209.90,195.76 211.00,193.00 Z
           M 208.00,193.00
           C 208.00,193.00 209.00,193.00 209.00,193.00
             209.00,193.00 208.00,194.00 208.00,194.00
             208.00,194.00 208.00,193.00 208.00,193.00 Z
           M 169.00,211.00
           C 169.00,211.00 182.00,206.34 182.00,206.34
             182.00,206.34 208.00,199.26 208.00,199.26
             208.00,199.26 246.00,196.01 246.00,196.01
             246.00,196.01 264.00,197.00 264.00,197.00
             261.00,202.15 253.24,204.63 248.00,207.25
             244.75,208.87 234.02,213.96 231.00,214.81
             231.00,214.81 213.00,214.81 213.00,214.81
             213.00,214.81 193.00,214.00 193.00,214.00
             185.30,213.96 179.71,211.81 172.00,214.00
             172.00,214.00 182.00,214.85 182.00,214.85
             182.00,214.85 190.28,218.89 190.28,218.89
             190.28,218.89 214.00,220.00 214.00,220.00
             207.97,227.25 203.01,225.32 195.00,225.00
             195.00,225.00 205.00,229.00 205.00,229.00
             200.98,230.79 193.41,235.54 190.00,236.31
             187.27,236.87 185.54,236.09 183.00,236.31
             178.76,236.77 179.87,237.95 172.00,238.00
             172.00,238.00 143.00,238.00 143.00,238.00
             140.38,238.02 132.76,239.49 131.49,238.86
             130.36,238.29 129.22,236.42 128.36,235.43
             123.23,229.52 120.80,223.67 119.00,216.00
             119.00,216.00 144.00,213.00 144.00,213.00
             144.00,213.00 171.00,212.00 171.00,212.00
             171.00,212.00 169.00,212.00 169.00,212.00
             169.00,212.00 169.00,211.00 169.00,211.00 Z
           M 336.00,232.00
           C 336.00,232.00 315.00,230.00 315.00,230.00
             315.00,230.00 273.00,226.25 273.00,226.25
             268.69,225.54 253.90,223.64 252.82,218.79
             252.12,215.63 255.85,212.59 258.02,210.90
             264.17,206.09 272.42,202.73 280.00,200.90
             287.82,199.01 306.03,198.18 313.00,201.98
             318.07,204.75 330.63,221.45 333.00,227.00
             333.00,227.00 339.00,223.00 339.00,223.00
             339.00,223.00 335.00,222.00 335.00,222.00
             338.34,222.09 347.15,223.23 344.83,228.75
             343.79,231.23 338.39,233.94 336.00,235.00
             336.00,235.00 335.00,234.00 335.00,234.00
             335.00,234.00 336.00,232.00 336.00,232.00 Z
           M 191.00,220.00
           C 191.00,220.00 190.00,220.00 190.00,220.00
             190.00,220.00 191.00,221.00 191.00,221.00
             191.00,221.00 191.00,220.00 191.00,220.00 Z
           M 194.00,222.00
           C 194.00,222.00 193.00,222.00 193.00,222.00
             193.00,222.00 194.00,223.00 194.00,223.00
             194.00,223.00 194.00,222.00 194.00,222.00 Z
           M 195.00,223.00
           C 195.00,223.00 194.00,223.00 194.00,223.00
             194.00,223.00 195.00,224.00 195.00,224.00
             195.00,224.00 195.00,223.00 195.00,223.00 Z
           M 180.00,230.00
           C 180.00,230.00 148.00,230.00 148.00,230.00
             148.00,230.00 130.00,231.00 130.00,231.00
             130.00,231.00 132.00,237.00 132.00,237.00
             137.09,231.79 142.10,232.01 149.00,232.00
             165.09,231.97 162.30,231.46 178.00,235.00
             178.00,235.00 180.00,230.00 180.00,230.00 Z
           M 342.00,232.00
           C 355.01,233.72 382.08,237.23 391.94,245.53
             396.50,249.37 396.07,252.54 395.99,257.99
             395.79,270.46 400.23,290.65 390.61,300.78
             384.94,306.74 370.97,306.18 365.11,300.78
             362.15,298.06 361.30,295.62 360.00,292.00
             355.06,295.53 347.29,293.01 341.00,293.14
             341.00,293.14 319.00,293.14 319.00,293.14
             313.12,293.98 304.00,295.57 299.00,292.00
             299.00,292.00 294.00,295.00 294.00,295.00
             297.59,282.59 298.09,269.86 292.01,258.00
             289.77,253.63 284.53,247.57 279.00,248.53
             274.33,249.35 270.77,255.08 268.81,259.00
             263.12,270.37 263.96,287.03 270.36,298.00
             273.88,304.04 276.95,303.85 280.00,308.00
             271.88,308.00 263.99,308.46 256.00,306.71
             246.84,304.71 249.78,302.02 238.00,302.00
             238.00,302.00 220.00,302.00 220.00,302.00
             220.00,302.00 204.00,301.00 204.00,301.00
             204.00,301.00 180.00,301.00 180.00,301.00
             164.78,301.03 169.77,309.78 152.00,310.00
             144.76,310.08 137.42,309.58 131.00,305.78
             131.00,305.78 122.00,299.16 122.00,299.16
             117.21,296.67 108.19,297.48 103.00,287.00
             103.00,287.00 108.00,284.00 108.00,284.00
             110.68,287.41 111.55,283.62 109.51,281.73
             107.96,280.30 105.96,280.23 104.00,280.00
             104.00,280.00 105.00,277.00 105.00,277.00
             105.00,277.00 100.00,274.00 100.00,274.00
             100.00,274.00 111.00,270.00 111.00,270.00
             111.00,270.00 117.00,255.00 117.00,255.00
             117.00,255.00 105.00,254.00 105.00,254.00
             110.59,246.39 113.77,247.03 121.00,242.53
             121.00,242.53 129.00,237.00 129.00,237.00
             126.64,241.39 124.46,243.98 120.00,246.45
             114.93,249.25 111.27,248.38 108.00,254.00
             108.00,254.00 130.00,253.00 130.00,253.00
             130.00,253.00 147.00,252.00 147.00,252.00
             147.00,252.00 214.00,252.00 214.00,252.00
             214.00,252.00 233.00,248.34 233.00,248.34
             233.00,248.34 244.00,252.00 244.00,252.00
             253.82,230.89 284.85,229.24 296.00,250.00
             290.65,246.22 287.41,242.44 281.00,240.09
             267.66,235.19 253.60,241.71 247.00,254.00
             252.20,256.79 255.59,261.28 258.83,259.97
             260.85,259.16 264.39,253.92 266.17,252.04
             270.73,247.23 278.19,243.24 285.00,244.98
             292.89,247.00 296.77,255.72 298.33,263.00
             298.82,265.30 298.93,270.05 300.02,271.69
             301.87,274.45 306.08,273.99 309.00,274.00
             315.58,274.01 325.98,274.71 332.00,273.00
             332.00,273.00 312.00,273.00 312.00,273.00
             312.00,273.00 301.00,272.00 301.00,272.00
             301.81,268.44 303.27,262.09 306.27,259.85
             309.20,257.67 314.47,257.96 318.00,258.00
             318.00,258.00 358.00,263.00 358.00,263.00
             358.00,263.00 357.00,252.00 357.00,252.00
             357.00,252.00 319.00,250.00 319.00,250.00
             319.00,250.00 305.00,249.00 305.00,249.00
             305.00,249.00 304.00,253.00 304.00,253.00
             301.65,250.83 300.15,253.28 298.00,255.00
             298.13,249.92 297.90,247.96 303.00,246.00
             303.00,246.00 303.00,243.00 303.00,243.00
             307.94,247.61 315.66,245.93 322.00,246.00
             322.00,246.00 332.00,246.91 332.00,246.91
             332.00,246.91 358.00,249.00 358.00,249.00
             358.00,249.00 358.00,245.00 358.00,245.00
             358.79,246.25 359.32,247.40 360.48,248.41
             362.37,250.06 370.29,251.00 367.00,260.00
             365.60,254.69 364.90,254.26 360.00,252.00
             360.00,252.00 360.00,264.00 360.00,264.00
             360.00,264.00 366.00,262.00 366.00,262.00
             362.51,266.33 360.17,263.95 359.00,271.00
             359.00,271.00 365.00,265.00 365.00,265.00
             365.00,265.00 369.00,267.00 369.00,267.00
             369.00,267.00 370.00,270.00 370.00,270.00
             370.99,260.41 380.47,243.43 390.78,254.13
             392.76,256.19 393.76,258.50 395.00,261.00
             395.00,258.08 395.33,253.60 393.98,251.04
             392.02,247.31 386.80,244.56 383.00,243.07
             374.79,239.85 365.69,237.55 357.00,236.08
             351.98,235.23 346.13,235.17 342.00,232.00 Z
           M 219.00,253.00
           C 219.00,253.00 218.00,253.00 218.00,253.00
             218.00,253.00 219.00,254.00 219.00,254.00
             219.00,254.00 219.00,253.00 219.00,253.00 Z
           M 383.01,254.49
           C 371.75,258.87 373.37,279.39 375.65,289.00
             376.80,293.79 379.49,301.80 385.96,300.51
             390.35,299.64 392.44,293.84 393.32,290.00
             394.92,283.05 394.52,269.80 392.25,263.00
             390.56,257.91 388.81,254.46 383.01,254.49 Z
           M 101.00,264.00
           C 100.51,256.74 99.02,256.01 110.00,256.00
             107.81,262.22 107.82,263.78 101.00,264.00 Z
           M 166.00,259.00
           C 166.00,259.00 127.00,260.00 127.00,260.00
             127.00,260.00 125.00,271.00 125.00,271.00
             125.00,271.00 147.00,270.00 147.00,270.00
             147.00,270.00 164.00,270.00 164.00,270.00
             164.00,270.00 166.00,259.00 166.00,259.00 Z
           M 357.00,265.00
           C 357.00,265.00 331.00,261.28 331.00,261.28
             331.00,261.28 321.00,260.58 321.00,260.58
             317.56,260.12 309.38,258.98 308.00,263.00
             304.42,263.99 303.89,267.69 303.00,271.00
             303.00,271.00 308.00,269.00 308.00,269.00
             308.00,269.00 308.00,264.00 308.00,264.00
             308.00,264.00 309.00,268.00 309.00,268.00
             309.00,268.00 357.00,271.00 357.00,271.00
             357.00,271.00 357.00,265.00 357.00,265.00 Z
           M 367.00,261.00
           C 367.00,261.00 368.00,261.00 368.00,261.00
             368.00,261.00 367.00,262.00 367.00,262.00
             367.00,262.00 367.00,261.00 367.00,261.00 Z
           M 257.00,265.00
           C 257.00,265.00 204.00,265.00 204.00,265.00
             204.00,265.00 179.00,266.05 179.00,266.05
             179.00,266.05 196.00,266.05 196.00,266.05
             196.00,266.05 207.00,267.00 207.00,267.00
             207.00,267.00 235.00,267.00 235.00,267.00
             235.00,267.00 257.00,265.00 257.00,265.00 Z
           M 230.00,269.00
           C 230.00,269.00 225.00,270.00 225.00,270.00
             225.00,270.00 230.00,269.00 230.00,269.00 Z
           M 169.00,274.00
           C 169.00,274.00 141.00,273.00 141.00,273.00
             141.00,273.00 127.00,274.00 127.00,274.00
             127.00,274.00 144.00,274.00 144.00,274.00
             150.99,274.09 162.59,276.54 169.00,274.00 Z
           M 360.00,274.00
           C 360.00,274.00 346.00,275.00 346.00,275.00
             346.00,275.00 360.00,274.00 360.00,274.00 Z
           M 309.00,275.00
           C 309.00,275.00 298.00,275.00 298.00,275.00
             298.00,275.00 298.00,279.00 298.00,279.00
             298.00,279.00 309.00,279.00 309.00,279.00
             309.00,279.00 309.00,275.00 309.00,275.00 Z
           M 311.00,275.00
           C 311.00,275.00 313.00,279.00 313.00,279.00
             313.00,279.00 311.00,275.00 311.00,275.00 Z
           M 248.00,278.00
           C 248.00,278.00 247.00,278.00 247.00,278.00
             247.00,278.00 248.00,279.00 248.00,279.00
             248.00,279.00 248.00,278.00 248.00,278.00 Z
           M 168.00,289.00
           C 169.25,288.27 170.44,287.80 171.38,286.59
             175.36,281.46 166.69,277.98 167.28,286.00
             167.28,286.00 168.00,289.00 168.00,289.00 Z
           M 175.00,281.00
           C 175.00,281.00 174.00,289.00 174.00,289.00
             180.53,287.85 179.07,284.49 175.00,281.00 Z
           M 331.00,281.00
           C 324.55,281.00 303.73,280.12 299.00,282.00
             305.45,282.00 326.27,282.88 331.00,281.00 Z
           M 360.00,282.00
           C 360.00,282.00 359.00,282.00 359.00,282.00
             359.00,282.00 360.00,283.00 360.00,283.00
             360.00,283.00 360.00,282.00 360.00,282.00 Z
           M 242.00,286.00
           C 242.00,286.00 241.00,286.00 241.00,286.00
             241.00,286.00 242.00,287.00 242.00,287.00
             242.00,287.00 242.00,286.00 242.00,286.00 Z
           M 186.00,287.00
           C 186.00,287.00 185.00,287.00 185.00,287.00
             185.00,287.00 186.00,288.00 186.00,288.00
             186.00,288.00 186.00,287.00 186.00,287.00 Z
           M 205.00,289.00
           C 205.00,289.00 198.00,290.00 198.00,290.00
             198.00,290.00 205.00,289.00 205.00,289.00 Z
           M 227.00,290.00
           C 227.00,290.00 219.00,291.00 219.00,291.00
             219.00,291.00 227.00,290.00 227.00,290.00 Z
           M 238.00,290.00
           C 238.00,290.00 237.00,290.00 237.00,290.00
             237.00,290.00 238.00,291.00 238.00,291.00
             238.00,291.00 238.00,290.00 238.00,290.00 Z" />
</svg>
